<?xml version="1.0" encoding="utf-8"?>
<!-- Generator: Adobe Illustrator 25.3.1, SVG Export Plug-In . SVG Version: 6.00 Build 0)  -->
<svg version="1.1" id="レイヤー_1" xmlns="http://www.w3.org/2000/svg" xmlns:xlink="http://www.w3.org/1999/xlink" x="0px"
	 y="0px" width="25px" height="25px" viewBox="0 0 25 25" style="enable-background:new 0 0 25 25;" xml:space="preserve">
<path d="M22.3,7.7c0.1,1.4-0.9,11.2-8.8,13.9c-7.8,2.7-13.2-1.2-13.2-1.2c4.6,0.3,7.2-2,7.2-2c-3.9-0.6-4.6-3.5-4.6-3.5
	c0.9,0.1,1.9-0.2,1.9-0.2c-4-1.8-3.7-5-3.7-5c0.8,0.8,2.1,0.6,2.1,0.6c-3.7-2.9-1.5-6.9-1.5-6.9C5.9,8,10.3,8.7,12.1,8.7
	C12,8.4,12,8,12,7.7c0-2.9,2.3-5.2,5.2-5.2c1.5,0,2.9,0.7,3.9,1.7C22.2,4,24,3,24,3c-0.2,1-1.6,2.2-2.1,2.6c0,0,0,0.1,0.1,0.2
	c0.8,0,2.7-0.8,2.7-0.8C23.9,6.5,22.3,7.7,22.3,7.7z"/>
</svg>
